<svg xmlns="http://www.w3.org/2000/svg" viewBox="0 0 1600 1000" role="img" aria-labelledby="title desc">
  <title id="title">AI data workflow mockup</title>
  <desc id="desc">A stylized workflow showing annotation review, dataset quality checks, and media task panels.</desc>
  <defs>
    <linearGradient id="bg" x1="0%" y1="0%" x2="100%" y2="100%">
      <stop offset="0%" stop-color="#0f2230" />
      <stop offset="100%" stop-color="#1a3d54" />
    </linearGradient>
  </defs>
  <rect width="1600" height="1000" rx="42" fill="url(#bg)" />
  <rect x="92" y="92" width="1416" height="816" rx="34" fill="#112734" />
  <rect x="92" y="92" width="1416" height="86" rx="34" fill="#163141" />
  <text x="144" y="146" fill="#f8efe3" font-family="Arial, sans-serif" font-size="38" font-weight="700">Dataset Quality Console</text>

  <rect x="136" y="222" width="420" height="286" rx="28" fill="#f4ede2" />
  <rect x="590" y="222" width="370" height="286" rx="28" fill="#f4ede2" />
  <rect x="994" y="222" width="370" height="286" rx="28" fill="#f4ede2" />

  <text x="172" y="282" fill="#122430" font-family="Arial, sans-serif" font-size="34" font-weight="700">Annotation review</text>
  <rect x="172" y="324" width="348" height="148" rx="24" fill="#ead8c5" />
  <rect x="208" y="358" width="152" height="84" rx="18" fill="#1f6c72" />
  <rect x="388" y="358" width="96" height="18" rx="9" fill="#b8a891" />
  <rect x="388" y="394" width="112" height="18" rx="9" fill="#b8a891" />
  <rect x="388" y="430" width="84" height="18" rx="9" fill="#b8a891" />

  <text x="626" y="282" fill="#122430" font-family="Arial, sans-serif" font-size="34" font-weight="700">Audio task flow</text>
  <path d="M660 416c48-74 112-74 160 0s112 74 160 0" fill="none" stroke="#1f6c72" stroke-width="20" stroke-linecap="round" />
  <rect x="660" y="454" width="264" height="18" rx="9" fill="#d2c2ab" />

  <text x="1030" y="282" fill="#122430" font-family="Arial, sans-serif" font-size="34" font-weight="700">Vision labeling</text>
  <rect x="1032" y="326" width="294" height="146" rx="22" fill="#ead8c5" />
  <rect x="1080" y="362" width="118" height="74" rx="16" fill="#c8853f" />
  <rect x="1206" y="352" width="86" height="18" rx="9" fill="#b8a891" />
  <rect x="1206" y="388" width="72" height="18" rx="9" fill="#b8a891" />
  <rect x="1206" y="424" width="98" height="18" rx="9" fill="#b8a891" />

  <rect x="136" y="548" width="1228" height="292" rx="30" fill="#f4ede2" />
  <text x="176" y="614" fill="#122430" font-family="Arial, sans-serif" font-size="36" font-weight="700">Review checkpoints</text>
  <rect x="176" y="660" width="1148" height="52" rx="16" fill="#fff9f1" />
  <rect x="176" y="736" width="1148" height="52" rx="16" fill="#fff9f1" />
  <rect x="214" y="678" width="248" height="16" rx="8" fill="#10222f" />
  <rect x="214" y="754" width="222" height="16" rx="8" fill="#1f6c72" />
  <rect x="1088" y="671" width="170" height="30" rx="15" fill="#ead8c5" />
  <rect x="1088" y="747" width="170" height="30" rx="15" fill="#ead8c5" />
  <rect x="1392" y="222" width="72" height="286" rx="28" fill="#1f6c72" />
</svg>
