<svg xmlns="http://www.w3.org/2000/svg" viewBox="0 0 1600 1000" role="img" aria-labelledby="title desc">
  <title id="title">Monitoring and evaluation reporting dashboard mockup</title>
  <desc id="desc">A stylized reporting layout with charts, summary cards, and a structured implementation table.</desc>
  <defs>
    <linearGradient id="bg" x1="0%" y1="0%" x2="100%" y2="100%">
      <stop offset="0%" stop-color="#f4ede2" />
      <stop offset="100%" stop-color="#efe2cd" />
    </linearGradient>
  </defs>
  <rect width="1600" height="1000" rx="42" fill="url(#bg)" />
  <rect x="82" y="82" width="1436" height="836" rx="34" fill="#fff9f1" />
  <rect x="82" y="82" width="1436" height="90" rx="34" fill="#10222f" />
  <text x="136" y="138" fill="#f8efe3" font-family="Arial, sans-serif" font-size="38" font-weight="700">Programme Reporting Hub</text>

  <rect x="126" y="228" width="276" height="190" rx="28" fill="#10222f" />
  <rect x="430" y="228" width="276" height="190" rx="28" fill="#1f6c72" />
  <rect x="734" y="228" width="276" height="190" rx="28" fill="#c8853f" />
  <rect x="1038" y="228" width="354" height="190" rx="28" fill="#ead8c5" />

  <text x="164" y="286" fill="#f8efe3" font-family="Arial, sans-serif" font-size="26">Implementation</text>
  <text x="164" y="354" fill="#f8efe3" font-family="Arial, sans-serif" font-size="66" font-weight="700">On track</text>
  <text x="468" y="286" fill="#f8efe3" font-family="Arial, sans-serif" font-size="26">Reporting cycle</text>
  <text x="468" y="354" fill="#f8efe3" font-family="Arial, sans-serif" font-size="66" font-weight="700">Monthly</text>
  <text x="772" y="286" fill="#fff4ea" font-family="Arial, sans-serif" font-size="26">Stakeholder updates</text>
  <text x="772" y="354" fill="#fff4ea" font-family="Arial, sans-serif" font-size="66" font-weight="700">Clear</text>
  <text x="1078" y="286" fill="#122430" font-family="Arial, sans-serif" font-size="26">Database support</text>
  <rect x="1078" y="324" width="264" height="18" rx="9" fill="#cfbfa9" />
  <rect x="1078" y="360" width="228" height="18" rx="9" fill="#cfbfa9" />
  <rect x="1078" y="396" width="246" height="18" rx="9" fill="#cfbfa9" />

  <rect x="126" y="456" width="598" height="392" rx="30" fill="#f4ede2" />
  <rect x="758" y="456" width="634" height="392" rx="30" fill="#f4ede2" />

  <text x="168" y="520" fill="#122430" font-family="Arial, sans-serif" font-size="38" font-weight="700">Progress trends</text>
  <polyline points="172,752 268,690 364,706 460,604 556,640 652,558" fill="none" stroke="#1f6c72" stroke-width="18" stroke-linecap="round" stroke-linejoin="round" />
  <circle cx="172" cy="752" r="12" fill="#1f6c72" />
  <circle cx="268" cy="690" r="12" fill="#1f6c72" />
  <circle cx="364" cy="706" r="12" fill="#1f6c72" />
  <circle cx="460" cy="604" r="12" fill="#1f6c72" />
  <circle cx="556" cy="640" r="12" fill="#1f6c72" />
  <circle cx="652" cy="558" r="12" fill="#1f6c72" />
  <rect x="172" y="780" width="460" height="16" rx="8" fill="#d9c9b2" />

  <text x="800" y="520" fill="#122430" font-family="Arial, sans-serif" font-size="38" font-weight="700">Field and report log</text>
  <rect x="800" y="568" width="550" height="56" rx="18" fill="#fff9f1" />
  <rect x="800" y="648" width="550" height="56" rx="18" fill="#fff9f1" />
  <rect x="800" y="728" width="550" height="56" rx="18" fill="#fff9f1" />
  <rect x="836" y="588" width="196" height="16" rx="8" fill="#10222f" />
  <rect x="836" y="668" width="162" height="16" rx="8" fill="#1f6c72" />
  <rect x="836" y="748" width="178" height="16" rx="8" fill="#c8853f" />
  <rect x="1186" y="580" width="120" height="30" rx="15" fill="#ead8c5" />
  <rect x="1186" y="660" width="120" height="30" rx="15" fill="#ead8c5" />
  <rect x="1186" y="740" width="120" height="30" rx="15" fill="#ead8c5" />
</svg>
